<?xml version="1.0" encoding="UTF-8" standalone="no"?>
<!-- Created with Inkscape (http://www.inkscape.org/) -->

<svg
   xmlns:dc="http://purl.org/dc/elements/1.1/"
   xmlns:cc="http://creativecommons.org/ns#"
   xmlns:rdf="http://www.w3.org/1999/02/22-rdf-syntax-ns#"
   xmlns:svg="http://www.w3.org/2000/svg"
   xmlns="http://www.w3.org/2000/svg"
   xmlns:sodipodi="http://sodipodi.sourceforge.net/DTD/sodipodi-0.dtd"
   xmlns:inkscape="http://www.inkscape.org/namespaces/inkscape"
   width="744.09448819"
   height="1052.3622047"
   id="svg2"
   version="1.1"
   inkscape:version="0.48.4 r9939"
   sodipodi:docname="New document 1">
  <defs
     id="defs4" />
  <sodipodi:namedview
     id="base"
     pagecolor="#ffffff"
     bordercolor="#666666"
     borderopacity="1.0"
     inkscape:pageopacity="0.0"
     inkscape:pageshadow="2"
     inkscape:zoom="4.8506773"
     inkscape:cx="788.39612"
     inkscape:cy="289.36536"
     inkscape:document-units="px"
     inkscape:current-layer="layer1"
     showgrid="false"
     inkscape:window-width="1855"
     inkscape:window-height="1056"
     inkscape:window-x="65"
     inkscape:window-y="24"
     inkscape:window-maximized="1" />
  <metadata
     id="metadata7">
    <rdf:RDF>
      <cc:Work
         rdf:about="">
        <dc:format>image/svg+xml</dc:format>
        <dc:type
           rdf:resource="http://purl.org/dc/dcmitype/StillImage" />
        <dc:title></dc:title>
      </cc:Work>
    </rdf:RDF>
  </metadata>
  <g
     inkscape:label="Layer 1"
     inkscape:groupmode="layer"
     id="layer1">
    <path
       style="fill:none;stroke:#a50000;stroke-width:1px;stroke-linecap:butt;stroke-linejoin:miter;stroke-opacity:1"
       d="m 764.94725,712.28899 -4.5662,12.17653 2.8267,1.7395 1.52207,-3.26157 -3.16891,-1.33993 z"
       id="path3772"
       inkscape:connector-curvature="0"
       sodipodi:nodetypes="cccccc" />
    <path
       sodipodi:type="arc"
       style="fill:none;fill-opacity:1;stroke:#ab0000;stroke-width:2;stroke-miterlimit:4;stroke-opacity:1;stroke-dasharray:none;stroke-dashoffset:0"
       id="path3768"
       sodipodi:cx="766.3606"
       sodipodi:cy="708.59253"
       sodipodi:rx="4.0226049"
       sodipodi:ry="3.2615716"
       d="m 770.3832,708.59253 a 4.0226049,3.2615716 0 1 1 -8.04521,0 4.0226049,3.2615716 0 1 1 8.04521,0 z"
       transform="matrix(0.79803494,0.21591075,-0.22004443,0.81331359,310.49807,-32.685475)" />
    <path
       style="fill:#000000;stroke:#000000;stroke-width:1px;stroke-linecap:butt;stroke-linejoin:miter;stroke-opacity:1;fill-opacity:1"
       d="m 742.53692,770.06552 c 0.46638,2.4151 0.16247,4.23914 -1.2496,5.47899 -4.98756,-0.73524 -5.6276,0.4883 -6.44021,1.63409 2.31674,-0.51215 4.55245,-1.08733 7.68981,-0.96123 1.58205,-0.14148 2.818,0.0159 3.36429,0.76898 0.32169,-1.11571 -0.46306,-1.84843 -2.59531,-2.1147 0.85707,-1.35059 0.35061,-2.58261 0.19224,-3.8449 z"
       id="path3784"
       inkscape:connector-curvature="0"
       sodipodi:nodetypes="cccccccc" />
    <path
       style="fill:#000000;stroke:none;stroke-width:1px;stroke-linecap:butt;stroke-linejoin:miter;stroke-opacity:1;fill-opacity:1"
       d="m 767.12164,716.42031 c -3.59829,-2.24686 -4.22296,-4.49372 -14.7858,-6.74058 -14.54635,-12.54554 -20.64381,8.01224 -23.91819,14.13348 -18.41085,11.84019 31.71369,73.34941 43.05275,77.40796 2.09718,-33.04587 -8.55123,-68.78426 -18.04736,-74.79871 -2.61666,-4.82802 -0.32124,-6.9271 2.17438,-8.91496 z"
       id="path2996"
       inkscape:connector-curvature="0"
       sodipodi:nodetypes="ccccccc" />
    <path
       style="fill:#000000;fill-opacity:1;stroke:#000000;stroke-width:1px;stroke-linecap:butt;stroke-linejoin:miter;stroke-opacity:1"
       d="m 725.76678,739.01856 -0.56642,14.86849 2.40728,-1.13283 -0.052,4.32265 1.95997,-0.52183 -0.20869,7.10274 2.63827,-0.93561 -0.041,4.05091 2.23956,-1.0511 0.0335,3.22739 2.95502,-0.48065 0.0558,0.87936 3.87194,-0.87574 z"
       id="path3786"
       inkscape:connector-curvature="0"
       sodipodi:nodetypes="cccccccccccccc" />
  </g>
</svg>
